<svg xmlns="http://www.w3.org/2000/svg" width="18.464" height="33.785" viewBox="0 0 18.464 33.785">
  <g id="logo" transform="translate(-170.268 -43.608)">
    <path id="Rectangle_10" data-name="Rectangle 10" d="M4,0H24a0,0,0,0,1,0,0V4a0,0,0,0,1,0,0H0A0,0,0,0,1,0,4V4A4,4,0,0,1,4,0Z" transform="translate(170.268 64.392) rotate(-60)" fill="#b71759"/>
    <path id="Rectangle_11" data-name="Rectangle 11" d="M0,0H24a0,0,0,0,1,0,0V0a4,4,0,0,1-4,4H0A0,0,0,0,1,0,4V0A0,0,0,0,1,0,0Z" transform="translate(173.268 75.392) rotate(-60)" fill="#b71759"/>
  </g>
</svg>
